<?xml version="1.0" encoding="UTF-8" standalone="no"?>
<svg
   xmlns:dc="http://purl.org/dc/elements/1.1/"
   xmlns:cc="http://creativecommons.org/ns#"
   xmlns:rdf="http://www.w3.org/1999/02/22-rdf-syntax-ns#"
   xmlns:svg="http://www.w3.org/2000/svg"
   xmlns="http://www.w3.org/2000/svg"
   viewBox="0 0 67.490164 67.567952"
   height="19.069178mm"
   width="19.047224mm"
   xml:space="preserve"
   version="1.1"
   id="svg3355"><metadata
     id="metadata3361"><rdf:RDF><cc:Work
         rdf:about=""><dc:format>image/svg+xml</dc:format><dc:type
           rdf:resource="http://purl.org/dc/dcmitype/StillImage" /><dc:title></dc:title></cc:Work></rdf:RDF></metadata><defs
     id="defs3359"><clipPath
       id="clipPath3371"
       clipPathUnits="userSpaceOnUse"><path
         id="path3373"
         d="m 41,84 760,0 0,428 -760,0 0,-428 z" /></clipPath></defs><g
     transform="matrix(1.25,0,0,-1.25,-6.0696066,740.04113)"
     id="g3363"><g
       id="g3365" /><g
       transform="translate(139.87341,112.97468)"
       id="g3516"><path
         d="m -134.62166,452.03106 c 0,14.708 11.9092,26.6311 26.6,26.6311 14.690803,0 26.600003,-11.9231 26.600003,-26.6311 0,-14.708 -11.9092,-26.6311 -26.600003,-26.6311 -14.6908,0 -26.6,11.9231 -26.6,26.6311 z"
         style="fill:#0066cc;fill-opacity:1;fill-rule:nonzero;stroke:none"
         id="path3377" /><path
         id="path3381"
         style="fill:none;stroke:#41719c;stroke-width:0.79212952;stroke-linecap:butt;stroke-linejoin:miter;stroke-miterlimit:8;stroke-dasharray:none;stroke-opacity:1"
         d="m -134.62166,452.03105 c 0,14.70796 11.90922,26.63111 26.6,26.63111 14.690773,0 26.600003,-11.92315 26.600003,-26.63111 0,-14.70796 -11.90923,-26.63112 -26.600003,-26.63112 -14.69078,0 -26.6,11.92316 -26.6,26.63112 z" /><path
         d="m -128.51456,452.13296 c 0,11.5375 9.3421,20.8905 20.8661,20.8905 11.524003,0 20.866103,-9.353 20.866103,-20.8905 0,-11.5375 -9.3421,-20.8905 -20.866103,-20.8905 -11.524,0 -20.8661,9.353 -20.8661,20.8905 z"
         style="fill:#ffffff;fill-opacity:1;fill-rule:nonzero;stroke:none"
         id="path3383" /><path
         id="path3387"
         style="fill:none;stroke:#41719c;stroke-width:0.79212952;stroke-linecap:butt;stroke-linejoin:miter;stroke-miterlimit:8;stroke-dasharray:none;stroke-opacity:1"
         d="m -128.51456,452.13296 c 0,11.53751 9.34207,20.8905 20.86609,20.8905 11.524023,0 20.866093,-9.35299 20.866093,-20.8905 0,-11.5375 -9.34207,-20.89049 -20.866093,-20.89049 -11.52402,0 -20.86609,9.35299 -20.86609,20.89049 z" /><path
         d="m -124.24856,451.83856 c 0,9.2013 7.4503,16.6603 16.6408,16.6603 9.190503,0 16.640803,-7.459 16.640803,-16.6603 0,-9.2012 -7.4503,-16.6603 -16.640803,-16.6603 -9.1905,0 -16.6408,7.4591 -16.6408,16.6603 z"
         style="fill:#0066cc;fill-opacity:1;fill-rule:nonzero;stroke:none"
         id="path3389" /><path
         id="path3393"
         style="fill:none;stroke:#41719c;stroke-width:0.79212952;stroke-linecap:butt;stroke-linejoin:miter;stroke-miterlimit:8;stroke-dasharray:none;stroke-opacity:1"
         d="m -124.24856,451.83856 c 0,9.20123 7.45036,16.6603 16.64083,16.6603 9.190483,0 16.640843,-7.45907 16.640843,-16.6603 0,-9.20122 -7.45036,-16.66029 -16.640843,-16.66029 -9.19047,0 -16.64083,7.45907 -16.64083,16.66029 z" /><path
         d="m -113.75866,439.94686 16.981403,12.1861 -16.981403,12.1861 0,-24.3722 z"
         style="fill:#ffffff;fill-opacity:1;fill-rule:nonzero;stroke:none"
         id="path3395" /><path
         id="path3399"
         style="fill:none;stroke:#41719c;stroke-width:0.79212952;stroke-linecap:butt;stroke-linejoin:miter;stroke-miterlimit:8;stroke-dasharray:none;stroke-opacity:1"
         d="m -113.75864,439.94686 16.981383,12.18611 -16.981383,12.18611 0,-24.37222 z" /></g></g></svg>